PathFileType	4	(X/Y/Z)	Walk2.trc
DataRate	CameraRate	NumFrames	NumMarkers	Units	OrigDataRate	OrigDataStartFrame	OrigNumFrames
200.000000	200.000000	8	61	mm	200.000000	725	1012
Frame#	Times		RCAR		LToe		LTB4		LTB1		RWRR		LMT1		RACR1		LFA1		LUA1		RFA1		LElbow		RFHD		LCAR		LASI		LWRU		LWRR		RLFC		STRN		LACR1		RTH3		RWRU		RToe		C7		RPSI		RMT1		RMT5		LPSI		RMFC		LFHD		RTB3		LTH3		LMFC		RTB2		RTB1		RCAL		LTH4		CLAV		RTB4		RTH2		RMMAL		LMT5		LTH1		RASI		LTH2		RLMAL		LBHD		LTB2		RBHD		LLFC		RUA1		RElbow		LTB3		RTH4		LMMAL		RTH1		LCAL		RBack		T10		LElbowM		LLMAL		RElbowM
			X1	Y1	Z1	X2	Y2	Z2	X3	Y3	Z3	X4	Y4	Z4	X5	Y5	Z5	X6	Y6	Z6	X7	Y7	Z7	X8	Y8	Z8	X9	Y9	Z9	X10	Y10	Z10	X11	Y11	Z11	X12	Y12	Z12	X13	Y13	Z13	X14	Y14	Z14	X15	Y15	Z15	X16	Y16	Z16	X17	Y17	Z17	X18	Y18	Z18	X19	Y19	Z19	X20	Y20	Z20	X21	Y21	Z21	X22	Y22	Z22	X23	Y23	Z23	X24	Y24	Z24	X25	Y25	Z25	X26	Y26	Z26	X27	Y27	Z27	X28	Y28	Z28	X29	Y29	Z29	X30	Y30	Z30	X31	Y31	Z31	X32	Y32	Z32	X33	Y33	Z33	X34	Y34	Z34	X35	Y35	Z35	X36	Y36	Z36	X37	Y37	Z37	X38	Y38	Z38	X39	Y39	Z39	X40	Y40	Z40	X41	Y41	Z41	X42	Y42	Z42	X43	Y43	Z43	X44	Y44	Z44	X45	Y45	Z45	X46	Y46	Z46	X47	Y47	Z47	X48	Y48	Z48	X49	Y49	Z49	X50	Y50	Z50	X51	Y51	Z51	X52	Y52	Z52	X53	Y53	Z53	X54	Y54	Z54	X55	Y55	Z55	X56	Y56	Z56	X57	Y57	Z57	X58	Y58	Z58	X59	Y59	Z59	X60	Y60	Z60	X61	Y61	Z61

725	3.625	-112.37	866.59	361.51	-93.007	31.071	-26.787	-230.68	272.99	-32.627	-208.94	355.25	-38.769	-103.74	910.58	300.79	-149.45	46.705	-14.705	-155.04	1508.2	189	-69.709	1076.3	-324.46	-150.73	1360.7	-268.71	-158.87	1047.1	327.38	-173.22	1191.9	-323.36	-9.4207	1705.1	88.455	2.721	925.61	-334.36	-89.027	1041.3	-163.88	-75.04	943.82	-334.92	-3.1553	962.81	-277.69	-15.078	542.5	210.21	-24.48	1305.5	-4.7866	-152.04	1541.9	-182.56	-66.55	661.62	214.54	-174.03	902.74	355.6	138.54	73.223	137.33	-256.47	1566.5	8.7212	-316.45	1069.9	46.751	91.608	81.173	117.88	43.956	53.802	197.6	-315.88	1082.5	-61.975	-13.525	526.47	64.167	0.2001	1715.1	-15.787	-3.1079	226.3	117.33	-180.5	647.59	-175.03	-219.92	505.18	-8.4796	7.3199	307.76	184.91	29.231	395.56	130.36	-127.58	73.303	106.47	-176.02	733.25	-193.91	-89.283	1478.1	-9.3408	12.562	310.31	123.33	-55.123	765.54	224.98	-30.393	134.17	68.087	-189.75	26.747	-110.62	-171.43	817.7	-209.58	-101.42	1052.5	157.26	-118.68	733.48	-180.57	-71.893	105.97	156.18	-163.92	1705.6	-51.646	-206.11	262.47	-90.697	-180.79	1695.9	89.547	-219.27	501.58	-150.7	-190.01	1332.1	263.76	-243.57	1176.6	308.69	-249.02	189.46	-27.155	-107.16	735.36	217.67	-289.48	95.784	13.829	-148.39	814.47	219.32	-374.79	47.043	-50.861	-319.52	1446.6	119.74	-298.64	1208.7	-10.456	-208.1	1159.1	-241.17	-304.91	68.712	-86.161	-266.26	1148.6	217.6
726	3.63	-109.09	865.55	361.88	-92.953	31.049	-26.836	-229.57	272.71	-32.544	-207.43	354.85	-38.663	-100.21	909.47	301.17	-149.42	46.66	-14.692	-150.22	1507.5	189.18	-63.976	1075.7	-324.31	-145.53	1359.9	-268.47	-154.94	1046.2	327.61	-167.7	1191.2	-323.15	-4.5417	1704.4	88.676	8.7428	925.17	-334.32	-83.597	1040.8	-164.17	-69.065	943.24	-334.85	2.797	962.34	-277.64	-9.519	541.48	210.01	-19.594	1304.8	-4.6453	-147.18	1541.2	-182.4	-61.735	660.62	214.18	-170.63	901.9	355.83	155.94	75.791	137.24	-251.59	1565.8	8.8779	-311.35	1069	47.15	108.76	82.525	118.04	62.114	54.18	197.98	-310.93	1081.7	-61.498	-7.4097	525.55	63.607	5.0879	1714.4	-15.568	10.334	225.4	117.68	-177.08	647.11	-174.78	-217.72	504.95	-8.3471	18.834	307.25	185.06	38.306	395.45	130.24	-110.22	69.288	107.64	-172.11	732.89	-193.82	-84.392	1477.4	-9.1566	23.852	309.8	123.43	-50.445	764.49	225.24	-14.714	132.48	68.735	-189.73	26.734	-110.61	-167.06	817.17	-209.33	-96.311	1051.8	157.51	-114.92	732.68	-179.75	-55.172	103.38	157.03	-159.03	1705	-51.438	-205.06	262.07	-90.568	-175.9	1695.2	89.74	-216.83	501.25	-150.55	-185.44	1331.4	263.96	-239.21	1175.9	308.67	-248.33	189.26	-27.081	-102.44	734.31	217.3	-289.37	95.793	13.882	-143.63	813.34	218.98	-374.74	47.182	-50.847	-314.71	1445.9	119.88	-293.69	1207.9	-10.039	-202.51	1158.2	-240.98	-304.78	68.752	-86.105	-261.74	1148	217.55
727	3.635	-105.79	864.47	362.25	-92.894	31.026	-26.88	-228.46	272.42	-32.454	-205.93	354.45	-38.547	-96.661	908.32	301.55	-149.38	46.613	-14.677	-145.38	1506.8	189.38	-58.275	1075.1	-324.14	-140.35	1359.1	-268.21	-150.98	1045.3	327.84	-162.21	1190.3	-322.9	0.34436	1703.7	88.911	14.718	924.7	-334.27	-78.072	1040.2	-164.46	-63.137	942.61	-334.76	8.717	961.84	-277.58	-4.0686	540.39	209.78	-14.686	1304.1	-4.4932	-142.34	1540.4	-182.22	-57.05	659.51	213.75	-167.21	901.02	356.06	173.13	78.535	137.18	-246.7	1565.1	9.0582	-306.23	1068.1	47.557	125.73	84.056	118.25	80.132	54.797	198.42	-305.95	1080.9	-61.011	-1.3729	524.57	62.994	9.9793	1713.7	-15.336	23.657	224.61	118.08	-173.65	646.62	-174.52	-215.52	504.72	-8.1995	30.245	306.83	185.22	47.261	395.34	130.11	-92.914	65.509	108.93	-168.17	732.5	-193.7	-79.491	1476.7	-8.9582	35.021	309.36	123.55	-45.858	763.33	225.48	0.85008	130.96	69.458	-189.71	26.723	-110.59	-162.68	816.62	-209.09	-91.168	1051.1	157.75	-111.15	731.86	-178.9	-38.526	101.02	157.97	-154.14	1704.3	-51.213	-204.01	261.68	-90.427	-171.01	1694.5	89.951	-214.38	500.92	-150.39	-180.82	1330.8	264.19	-234.8	1175.2	308.65	-247.66	189.06	-26.993	-97.84	733.18	216.89	-289.25	95.81	13.941	-138.94	812.14	218.61	-374.7	47.336	-50.835	-309.89	1445.2	120.05	-288.73	1207.2	-9.6033	-196.92	1157.2	-240.74	-304.66	68.801	-86.048	-257.18	1147.4	217.51
728	3.64	-102.48	863.35	362.63	-92.829	31.001	-26.92	-227.36	272.14	-32.355	-204.43	354.05	-38.423	-93.097	907.14	301.94	-149.34	46.568	-14.663	-140.53	1506.1	189.59	-52.606	1074.4	-323.94	-135.19	1358.3	-267.92	-146.98	1044.3	328.08	-156.73	1189.5	-322.61	5.2375	1702.9	89.161	20.643	924.18	-334.2	-72.45	1039.7	-164.75	-57.258	941.95	-334.63	14.604	961.29	-277.51	1.2821	539.24	209.52	-9.7558	1303.4	-4.3309	-137.49	1539.6	-182.02	-52.488	658.31	213.27	-163.76	900.11	356.3	190.1	81.45	137.16	-241.81	1564.3	9.2626	-301.09	1067.2	47.974	142.51	85.763	118.5	97.983	55.653	198.94	-300.95	1080.1	-60.514	4.5801	523.53	62.332	14.874	1713	-15.09	36.852	223.94	118.53	-170.21	646.12	-174.25	-213.31	504.48	-8.0369	41.542	306.5	185.4	56.095	395.23	129.98	-75.683	61.971	110.34	-164.22	732.09	-193.57	-74.58	1476	-8.7454	46.063	308.98	123.69	-41.354	762.06	225.68	16.286	129.59	70.253	-189.69	26.715	-110.57	-158.28	816.07	-208.86	-85.988	1050.4	157.99	-107.37	731.01	-178.02	-21.977	98.891	159.01	-149.24	1703.5	-50.971	-202.96	261.29	-90.278	-166.11	1693.7	90.18	-211.94	500.59	-150.21	-176.17	1330.1	264.43	-230.35	1174.5	308.65	-246.98	188.87	-26.891	-93.337	731.98	216.43	-289.13	95.834	14.007	-134.33	810.87	218.21	-374.66	47.507	-50.824	-305.05	1444.5	120.24	-283.74	1206.4	-9.1485	-191.35	1156.3	-240.45	-304.53	68.862	-85.988	-252.58	1146.8	217.48
729	3.645	-99.15	862.2	363.01	-92.759	30.975	-26.955	-226.26	271.85	-32.247	-202.93	353.65	-38.29	-89.513	905.92	302.34	-149.29	46.524	-14.649	-135.65	1505.4	189.82	-46.971	1073.7	-323.73	-130.04	1357.4	-267.62	-142.95	1043.3	328.33	-151.28	1188.6	-322.27	10.137	1702.2	89.426	26.519	923.63	-334.11	-66.738	1039.1	-165.03	-51.428	941.26	-334.46	20.456	960.71	-277.41	6.5425	538.04	209.24	-4.8035	1302.7	-4.1587	-132.65	1538.8	-181.82	-48.039	657.03	212.74	-160.29	899.17	356.54	206.82	84.525	137.19	-236.91	1563.6	9.4915	-295.92	1066.2	48.401	159.07	87.638	118.81	115.64	56.743	199.52	-295.91	1079.2	-60.009	10.441	522.42	61.63	19.773	1712.3	-14.83	49.908	223.4	119.02	-166.77	645.61	-173.97	-211.1	504.25	-7.8596	52.718	306.27	185.6	64.808	395.14	129.84	-58.55	58.681	111.84	-160.26	731.66	-193.41	-69.66	1475.2	-8.518	56.973	308.66	123.85	-36.925	760.7	225.84	31.58	128.4	71.111	-189.67	26.709	-110.54	-153.88	815.51	-208.65	-80.77	1049.7	158.23	-103.59	730.13	-177.14	-5.5487	96.994	160.12	-144.33	1702.8	-50.712	-201.92	260.91	-90.121	-161.2	1692.9	90.428	-209.5	500.28	-150.02	-171.48	1329.4	264.7	-225.85	1173.8	308.66	-246.32	188.67	-26.776	-88.925	730.7	215.94	-288.99	95.866	14.079	-129.79	809.55	217.78	-374.62	47.695	-50.812	-300.2	1443.7	120.47	-278.73	1205.6	-8.674	-185.79	1155.3	-240.11	-304.41	68.938	-85.928	-247.95	1146.1	217.45
730	3.65	-95.803	861.01	363.4	-92.686	30.948	-26.987	-225.16	271.57	-32.129	-201.45	353.25	-38.147	-85.91	904.66	302.75	-149.25	46.482	-14.635	-130.76	1504.6	190.07	-41.37	1073	-323.49	-124.9	1356.6	-267.3	-138.88	1042.3	328.59	-145.86	1187.7	-321.9	15.044	1701.4	89.706	32.343	923.02	-334.01	-60.943	1038.6	-165.3	-45.649	940.52	-334.27	26.274	960.08	-277.31	11.723	536.79	208.92	0.16993	1302	-3.9761	-127.82	1538	-181.59	-43.695	655.65	212.15	-156.79	898.2	356.79	223.29	87.749	137.27	-232.01	1562.8	9.7453	-290.73	1065.3	48.837	175.4	89.673	119.17	133.08	58.062	200.17	-290.85	1078.4	-59.495	16.201	521.25	60.895	24.675	1711.5	-14.554	62.815	222.97	119.55	-163.33	645.1	-173.68	-208.89	504.03	-7.668	63.764	306.13	185.81	73.398	395.06	129.7	-41.54	55.644	113.43	-156.31	731.19	-193.22	-64.732	1474.5	-8.2759	67.747	308.41	124.04	-32.563	759.24	225.98	46.716	127.37	72.024	-189.64	26.705	-110.51	-149.48	814.93	-208.45	-75.511	1048.9	158.46	-99.81	729.24	-176.26	10.736	95.332	161.3	-139.43	1702	-50.435	-200.88	260.53	-89.958	-156.28	1692.1	90.695	-207.08	499.96	-149.81	-166.74	1328.7	264.98	-221.32	1173	308.67	-245.66	188.49	-26.65	-84.593	729.36	215.42	-288.84	95.906	14.158	-125.3	808.17	217.34	-374.57	47.901	-50.796	-295.33	1442.9	120.73	-273.7	1204.8	-8.1796	-180.24	1154.4	-239.72	-304.29	69.03	-85.866	-243.27	1145.4	217.45
731	3.655	-92.435	859.8	363.8	-92.61	30.92	-27.015	-224.07	271.3	-32.004	-199.96	352.86	-37.997	-82.285	903.38	303.16	-149.2	46.444	-14.624	-125.85	1503.8	190.34	-35.802	1072.2	-323.24	-119.78	1355.7	-266.96	-134.78	1041.2	328.86	-140.46	1186.8	-321.49	19.956	1700.6	90	38.114	922.38	-333.89	-55.08	1038	-165.54	-39.922	939.76	-334.04	32.055	959.41	-277.18	16.833	535.48	208.58	5.1637	1301.3	-3.782	-122.98	1537.2	-181.35	-39.445	654.2	211.53	-153.26	897.21	357.04	239.48	91.108	137.41	-227.1	1561.9	10.024	-285.51	1064.3	49.285	191.48	91.86	119.58	150.27	59.596	200.89	-285.76	1077.5	-58.973	21.849	520.02	60.14	29.58	1710.7	-14.263	75.562	222.67	120.11	-159.91	644.58	-173.39	-206.68	503.81	-7.4627	74.669	306.09	186.04	81.866	395	129.56	-24.678	52.862	115.08	-152.36	730.69	-193.01	-59.795	1473.7	-8.019	78.378	308.23	124.24	-28.255	757.7	226.08	61.681	126.52	72.979	-189.62	26.704	-110.48	-145.09	814.35	-208.27	-70.211	1048.2	158.69	-96.044	728.34	-175.39	26.85	93.901	162.53	-134.52	1701.2	-50.14	-199.85	260.17	-89.793	-151.36	1691.3	90.983	-204.69	499.67	-149.6	-161.95	1328	265.27	-216.73	1172.2	308.71	-245.01	188.31	-26.516	-80.326	727.96	214.89	-288.67	95.956	14.243	-120.85	806.76	216.88	-374.53	48.125	-50.775	-290.45	1442.1	121.01	-268.64	1203.9	-7.6651	-174.7	1153.4	-239.29	-304.18	69.14	-85.802	-238.56	1144.7	217.45
732	3.66	-89.042	858.54	364.2	-92.533	30.892	-27.041	-222.98	271.03	-31.873	-198.49	352.48	-37.84	-78.637	902.06	303.58	-149.14	46.41	-14.614	-120.91	1503	190.62	-30.268	1071.4	-322.96	-114.67	1354.8	-266.6	-130.63	1040.2	329.14	-135.08	1185.9	-321.05	24.875	1699.8	90.309	43.831	921.7	-333.76	-49.169	1037.5	-165.74	-34.246	938.95	-333.78	37.8	958.71	-277.04	21.884	534.13	208.2	10.177	1300.5	-3.5751	-118.15	1536.3	-181.09	-35.274	652.69	210.87	-149.71	896.18	357.3	255.37	94.584	137.61	-222.18	1561.1	10.328	-280.26	1063.3	49.744	207.3	94.184	120.05	167.19	61.328	201.66	-280.63	1076.6	-58.443	27.377	518.74	59.379	34.489	1709.9	-13.955	88.137	222.49	120.7	-156.51	644.06	-173.1	-204.47	503.59	-7.2442	85.426	306.14	186.28	90.211	394.95	129.43	-7.9899	50.337	116.75	-148.43	730.17	-192.78	-54.849	1472.9	-7.7472	88.862	308.12	124.46	-23.991	756.09	226.16	76.459	125.84	73.963	-189.6	26.706	-110.45	-140.71	813.76	-208.1	-64.869	1047.4	158.92	-92.294	727.43	-174.55	42.769	92.698	163.78	-129.6	1700.4	-49.827	-198.84	259.81	-89.625	-146.44	1690.5	91.292	-202.32	499.38	-149.38	-157.1	1327.2	265.57	-212.11	1171.4	308.76	-244.35	188.15	-26.376	-76.111	726.51	214.34	-288.49	96.018	14.336	-116.45	805.31	216.43	-374.49	48.369	-50.745	-285.55	1441.3	121.33	-263.56	1203	-7.1306	-169.17	1152.4	-238.8	-304.07	69.271	-85.736	-233.82	1144	217.47
